<?xml version="1.0" encoding="utf-8"?>
<!-- Generator: Adobe Illustrator 24.1.0, SVG Export Plug-In . SVG Version: 6.00 Build 0)  -->
<svg version="1.1" id="圖層_1" xmlns="http://www.w3.org/2000/svg" xmlns:xlink="http://www.w3.org/1999/xlink" x="0px" y="0px"
	 viewBox="0 0 640 480" style="enable-background:new 0 0 640 480;" xml:space="preserve">
<style type="text/css">
	.st0{fill-rule:evenodd;clip-rule:evenodd;fill:#FFFFFF;}
</style>
<g>
	<path class="st0" d="M392.83,261.9c6.18,26.28,22,49.82,44.35,68.08c29.17,23.84,69.36,38.59,113.62,38.59v-0.12h0.03h29.52V432
		h-29.52h-0.03v-0.12c-65.93-0.01-125.54-21.78-168.6-56.96c-10.78-8.81-20.53-18.47-29.09-28.85
		c19.71-23.44,33.37-50.7,39.01-80.41L392.83,261.9z"/>
	<path class="st0" d="M404.87,197.19H581v58.54H394.13l3.32-21.67l1.04-9.81C399.48,214.9,401.65,205.85,404.87,197.19z"/>
	<path class="st0" d="M131.94,103.99H128c-0.07,41.07,0,84.32,0.88,84.32v0.04c0,4.59,4.6,8.35,10.21,8.35h69.12
		c8,0,36.06-0.03,66.37-0.08c-1.51,6.4-2.63,12.92-3.33,19.54c-1.8,12.62-4.05,24.92-7.23,36.71c-25.19-0.04-48.99-0.06-56.07-0.06
		h-69.12c-4.74,0-9.48,2.07-10.61,5.67l-0.08,0.6l0.36,89.63c-1.18,0.22-2.36,0.43-3.55,0.62c-10.26,1.69-20.78,1.4-31.42,1.4
		l-34.13-0.12L59.04,68.02l0-26.02h34.96v0h37.93l89.82,0.12c38.85,0,74.05,12.89,99.45,33.65c7.93,6.48,13.27,11.94,19.13,19.82
		c-24.13,19.07-42.26,43.07-54.38,69.32l0.15-9.06c0-14.46-6.66-26.56-18.54-36.26c-11.88-9.71-28.11-15.73-45.82-15.73
		L131.94,103.99z"/>
	<path class="st0" d="M535.65,42.07h38.88h5.77v4.59v61.86v4.59h-5.77h-38.88h-0.12h-5.77v-0.04c-3.51,0.11-7.06,0.33-10.64,0.65
		c-1.34,0.12-2.54,0.24-3.6,0.35c-1.29,0.14-2.5,0.28-3.6,0.42h-0.02c-2.89,0.36-5.98,0.83-9.26,1.4h-0.02l-0.03,0l0,0
		c-1.69,0.29-3.2,0.57-4.53,0.83c-1.6,0.31-3.08,0.62-4.45,0.92c-7.54,1.67-14.73,3.73-21.53,6.16l0,0.01l-0.1,0.03
		c-6.97,2.5-13.67,5.39-20.04,8.64c-6.41,3.28-12.48,6.9-18.14,10.83c-29.28,20.32-48.97,49.38-52.56,82.43l-1.04,9.55l-0.02,0.16
		l-3.34,21.19l-0.04,0.14l-1.82,9.33l0.02,0l-0.01,0.05l-0.02,0.02c-1.87,9.56-4.58,18.84-8.07,27.79
		c-3.52,9.03-7.8,17.73-12.78,26.03c-25.71,42.89-70.38,76.69-124.82,95.12h-0.02l-0.02,0.01l0,0.01c-2.11,0.71-4.17,1.39-6.2,2.02
		c-1.78,0.55-3.88,1.18-6.29,1.87c-10.85,3.11-22.11,5.65-33.71,7.54c-5.31,0.87-10.67,1.6-16.05,2.18c-2.11,0.23-4.12,0.43-6,0.59
		c-2.21,0.19-4.24,0.36-6.07,0.48c-6.78,0.46-13.81,0.7-21.07,0.7l-69.09,0.39L59,430.97v-4.6v-61.86v-4.56l5.77-0.01l69.09-0.15
		v-0.02h0.1v0.02c3.4,0,6.93-0.11,10.57-0.31c1.48-0.08,2.65-0.16,3.42-0.21c5.82-0.42,11.61-1.11,17.34-2.05l0.05-0.01
		c1.09-0.18,2.5-0.43,4.17-0.75c1.51-0.28,2.88-0.56,4.12-0.82l0,0c7.1-1.51,14.06-3.42,20.82-5.72
		c36.23-12.26,58.57-30.65,72.86-52.88c14.45-22.49,20.85-49.12,25.01-77.41h-0.01l0.01-0.09c1.1-10.05,3.17-19.92,6.14-29.54
		c2.95-9.58,6.8-18.88,11.45-27.82c23.92-45.96,69.28-82.79,125.82-103.01l0-0.01l0.04-0.02l0.07-0.02
		c2.35-0.84,4.52-1.59,6.52-2.25c2.3-0.76,4.51-1.46,6.61-2.1c11.36-3.46,23.01-6.24,34.84-8.28c5.38-0.93,10.95-1.72,16.68-2.36
		c5.66-0.64,11.42-1.13,17.25-1.45c1.09-0.06,2.39-0.12,3.97-0.19c2.62-0.11,5.31-0.19,8.05-0.24v-0.19h5.77H535.65z"/>
</g>
</svg>
