<?xml version="1.0" encoding="utf-8"?>
<!-- Generator: Adobe Illustrator 24.1.0, SVG Export Plug-In . SVG Version: 6.00 Build 0)  -->
<svg version="1.1" id="圖層_1" xmlns="http://www.w3.org/2000/svg" xmlns:xlink="http://www.w3.org/1999/xlink" x="0px" y="0px"
	 viewBox="0 0 500 50" style="enable-background:new 0 0 500 50;" xml:space="preserve">
<style type="text/css">
	.st0{fill-rule:evenodd;clip-rule:evenodd;fill:#98AC52;}
	.st1{fill-rule:evenodd;clip-rule:evenodd;fill:#00A5CA;}
	.st2{fill-rule:evenodd;clip-rule:evenodd;fill:#FFFFFF;}
</style>
<g>
	<path class="st0" d="M39.35,26.7c0.57,2.92,2.04,5.54,4.11,7.58c2.7,2.65,6.42,4.29,10.52,4.3v-0.01h0h2.73v7.07h-2.73h0v-0.01
		c-6.1,0-11.62-2.42-15.61-6.34c-1-0.98-1.9-2.06-2.69-3.21c1.82-2.61,3.09-5.64,3.61-8.95L39.35,26.7z"/>
	<path class="st0" d="M40.47,19.7h16.31v6.51h-17.3l0.31-2.41l0.1-1.09C39.97,21.66,40.17,20.66,40.47,19.7z"/>
	<path class="st0" d="M15.2,9.32h-0.36c-0.01,4.57,0,9.38,0.08,9.38v0.01c0,0.51,0.43,0.93,0.95,0.93h6.4c0.74,0,3.34,0,6.14-0.01
		c-0.14,0.71-0.24,1.44-0.31,2.18c-0.17,1.4-0.37,2.77-0.67,4.08c-2.33,0-4.54-0.01-5.19-0.01h-6.4c-0.44,0-0.88,0.23-0.98,0.63
		l-0.01,0.07l0.03,9.97c-0.11,0.02-0.22,0.05-0.33,0.07c-0.95,0.19-1.92,0.16-2.91,0.16l-3.16-0.01L8.45,5.32v-2.9h3.24v0h3.51
		l8.32,0.01c3.6,0,6.86,1.43,9.21,3.74c0.73,0.72,1.23,1.33,1.77,2.21c-2.23,2.12-3.91,4.79-5.03,7.72l0.01-1.01
		c0-1.61-0.62-2.96-1.72-4.03c-1.1-1.08-2.6-1.75-4.24-1.75L15.2,9.32z"/>
	<path class="st1" d="M52.58,2.43h3.6h0.53v0.51v6.88v0.51h-0.53h-3.6h-0.01h-0.53v0c-0.32,0.01-0.65,0.04-0.98,0.07
		c-0.12,0.01-0.24,0.03-0.33,0.04c-0.12,0.02-0.23,0.03-0.33,0.05h0c-0.27,0.04-0.55,0.09-0.86,0.16h0l0,0l0,0
		c-0.16,0.03-0.3,0.06-0.42,0.09c-0.15,0.03-0.29,0.07-0.41,0.1c-0.7,0.19-1.36,0.42-1.99,0.69l0,0l-0.01,0
		c-0.65,0.28-1.27,0.6-1.86,0.96c-0.59,0.36-1.15,0.77-1.68,1.2c-2.71,2.26-4.53,5.5-4.87,9.17l-0.1,1.06l0,0.02l-0.31,2.36l0,0.02
		l-0.17,1.04h0l0,0.01l0,0c-0.17,1.06-0.42,2.1-0.75,3.09c-0.33,1.01-0.72,1.97-1.18,2.9c-2.38,4.77-6.52,8.53-11.56,10.59h0l0,0v0
		c-0.19,0.08-0.39,0.15-0.57,0.22c-0.17,0.06-0.36,0.13-0.58,0.21c-1,0.35-2.05,0.63-3.12,0.84c-0.49,0.1-0.99,0.18-1.49,0.24
		c-0.19,0.03-0.38,0.05-0.56,0.07c-0.2,0.02-0.39,0.04-0.56,0.05c-0.63,0.05-1.28,0.08-1.95,0.08l-6.4,0.04l-0.54,0V45.2v-6.88
		v-0.51l0.53,0l6.4-0.02v0h0.01v0c0.32,0,0.64-0.01,0.98-0.03c0.14-0.01,0.25-0.02,0.32-0.02c0.54-0.05,1.08-0.12,1.61-0.23l0,0
		c0.1-0.02,0.23-0.05,0.39-0.08c0.14-0.03,0.27-0.06,0.38-0.09l0,0c0.66-0.17,1.3-0.38,1.93-0.64c3.35-1.37,5.42-3.41,6.75-5.88
		c1.34-2.5,1.93-5.47,2.32-8.61h0l0-0.01c0.1-1.12,0.29-2.22,0.57-3.29c0.27-1.07,0.63-2.1,1.06-3.1
		c2.21-5.11,6.41-9.21,11.65-11.46v0l0,0l0.01,0c0.22-0.09,0.42-0.18,0.6-0.25c0.21-0.08,0.42-0.16,0.61-0.23
		c1.05-0.38,2.13-0.69,3.23-0.92c0.5-0.1,1.01-0.19,1.54-0.26c0.52-0.07,1.06-0.13,1.6-0.16c0.1-0.01,0.22-0.01,0.37-0.02
		c0.24-0.01,0.49-0.02,0.74-0.03V2.43h0.53H52.58z"/>
	<path class="st2" d="M168.37,6.08c1.17,0.68,2.5,1.77,3.98,3.28l2.35-2.38c-1.48-1.43-2.89-2.6-4.22-3.5L168.37,6.08L168.37,6.08z
		 M175.05,24.97h-6.56v-2.83h18.62v-0.45c-2.5,0-4.84,0-7.03,0c-3.43,0-5.66-0.79-6.68-2.38c-0.31,0.53-0.93,1.02-1.87,1.47
		c-0.94,0.6-1.79,0.95-2.58,1.02l-1.17-2.83c1.4-0.53,2.34-1.05,2.81-1.58c0.39-0.53,0.63-1.13,0.7-1.81v-1.81
		c0-0.23-0.12-0.34-0.35-0.34h-2.34v-3.17h5.27c0.55,0,0.82,0.26,0.82,0.79v4.64c0.31,0.98,0.82,1.69,1.52,2.15V8.57
		c0-0.23,0.12-0.34,0.35-0.34h5.97c0.08-0.23,0.15-0.45,0.24-0.68h-7.5v-2.6h3.75c-0.24-0.23-0.39-0.45-0.47-0.68l2.93-1.59
		c0.47,0.6,0.94,1.36,1.41,2.26h4.21c0.39-0.9,0.62-1.62,0.7-2.15l3.28,1.13c-0.15,0.38-0.27,0.72-0.35,1.02h4.22v2.6h-8.79
		c-0.08,0.23-0.15,0.45-0.23,0.68h7.97c0.31,0,0.46,0.11,0.46,0.34v9.39c-0.07,0.3-0.23,0.45-0.46,0.45h-16.87
		c0.16,0.08,0.35,0.15,0.58,0.23c1.32,0.38,7.38,0.3,18.16-0.23l-0.7,3.28c-1.56,0-3.04,0-4.45,0v0.45h4.57v2.83h-4.57v2.15
		c-0.08,0.6-0.23,1.06-0.46,1.36c-0.39,0.45-0.86,0.79-1.41,1.02c-1.48,0.6-3.86,0.64-7.14,0.12l-0.12-3.51
		c2.58,0.68,4.33,0.79,5.27,0.34c0.24-0.23,0.35-0.49,0.35-0.79v-0.68h-10.89c0.94,0.53,1.79,1.24,2.57,2.15l-2.11,2.37
		c-1.32-1.13-2.38-1.96-3.16-2.49L175.05,24.97L175.05,24.97z M191.1,15.24h-11.6v0.45c0,0.15,0.04,0.23,0.12,0.23h11.37
		c0.07-0.08,0.11-0.15,0.11-0.23V15.24L191.1,15.24z M179.5,13.66h11.6v-0.68h-11.6V13.66L179.5,13.66z M179.5,11.39h11.6v-0.56
		c-0.07-0.08-0.11-0.11-0.11-0.11h-11.37c-0.16,0-0.2,0.03-0.12,0.11V11.39z"/>
	<path class="st2" d="M217.27,26.24h-3.63v3.1h15.7v-3.1h-3.86c0.08-0.07,0.16-0.26,0.24-0.57c0.07-0.3,0.16-0.61,0.24-0.92h2.11
		c0.31,0,0.47-0.16,0.47-0.46v-5.73c0-0.23-0.16-0.34-0.47-0.34h-13c-0.24,0-0.39,0.11-0.47,0.34v5.73c0,0.23,0.16,0.38,0.47,0.46
		h1.64c0.08,0.23,0.2,0.49,0.35,0.8C217.04,25.79,217.12,26.01,217.27,26.24L217.27,26.24z M220.32,26.24
		c-0.31-0.99-0.47-1.49-0.47-1.49h3.04c-0.07,0.45-0.24,0.95-0.46,1.49H220.32L220.32,26.24z M225.24,20.97
		c0.08,0,0.12,0.04,0.12,0.12v0.8c0,0-0.04,0.04-0.12,0.11h-7.38c-0.07,0-0.11-0.04-0.11-0.11v-0.8c0-0.08,0.04-0.12,0.11-0.12
		H225.24L225.24,20.97z M206.5,25.44v4.02h-3.16V15.92h-1.52v-4.81c0.07-0.39,0.27-0.58,0.58-0.58h0.7V4.34
		c0-0.69,0.36-1.03,1.05-1.03h7.38c0.63,0,0.93,0.34,0.93,1.03v6.19h1.17c0.24,0.08,0.35,0.12,0.35,0.12V4.91
		c0-0.31,0.16-0.46,0.47-0.46h3.51V2.85h2.93v1.61h1.05V2.85h2.93v1.61h3.75c0.23,0,0.35,0.15,0.35,0.46v8.71
		c0,0.23-0.12,0.35-0.35,0.35h-14.17c-0.08,0.3-0.16,0.57-0.24,0.8h14.64v2.87h-14.88v-2.07c-0.16,0.3-0.27,0.68-0.35,1.15
		c-0.31-0.15-0.63-0.23-0.94-0.23v11.01c0,0.92-0.47,1.6-1.4,2.06c-1.02,0.38-2.26,0.46-3.75,0.23l-0.35-3.33
		c0.54,0.23,0.93,0.38,1.17,0.46c0.24,0,0.35,0,0.35,0c0.55-0.31,0.82-0.61,0.82-0.92v-0.57H206.5L206.5,25.44z M206.5,22.69h3.04
		v-1.26h-3.04V22.69L206.5,22.69z M206.5,18.67h3.04v-0.92c0.08-0.15,0-0.23-0.23-0.23h-2.58c-0.15,0.08-0.24,0.15-0.24,0.23V18.67
		L206.5,18.67z M204.74,14.66h6.45c0.08-0.23,0.16-0.49,0.23-0.8c0-0.3-0.15-0.46-0.47-0.46h-5.86c-0.24,0-0.35,0.12-0.35,0.35
		V14.66L204.74,14.66z M208.95,10.53h0.82V9.39h-0.59c-0.15-0.08-0.24,0-0.24,0.23V10.53L208.95,10.53z M205.79,10.53h0.82V7.55
		c0-0.3,0.16-0.46,0.47-0.46h2.69V6.52l0,0c0-0.23-0.12-0.34-0.35-0.34h-3.28c-0.24,0-0.36,0.11-0.36,0.34V10.53L205.79,10.53z
		 M221.96,11.33v-1.03h-1.05v1.03H221.96L221.96,11.33z M224.89,10.31v1.03h1.06c0.07,0,0.12-0.03,0.12-0.11v-0.92H224.89
		L224.89,10.31z M221.96,8.12V7.09h-1.05v1.03H221.96L221.96,8.12z M224.89,7.09v1.03h1.17V7.21c0-0.08-0.04-0.12-0.12-0.12H224.89
		L224.89,7.09z M217.98,11.33v-1.03h-1.06v0.92c0,0.08,0.04,0.11,0.11,0.11H217.98L217.98,11.33z M217.98,8.12V7.09h-0.94
		c-0.07,0-0.11,0.04-0.11,0.12v0.92H217.98z"/>
	<path class="st2" d="M248.65,6.81c1.72,1.45,3.47,3.33,5.27,5.62l2.81-2.06c-1.88-2.3-3.71-4.21-5.5-5.74L248.65,6.81L248.65,6.81z
		 M256.97,23.67l-10.54,1.49l-0.82-3.44h0.12c-0.54-0.99-1.17-1.99-1.87-2.98v11.01h-3.63v-9.17c-0.93,1.61-1.91,3.13-2.92,4.58
		l-2.11-3.55c2.11-2.68,3.63-5.2,4.57-7.57h-3.87V10.6h4.33V7.73c-1.17,0.15-2.34,0.26-3.51,0.34l-0.47-3.44
		c4.6-0.38,8.24-0.95,10.89-1.72l0.7,3.44c-1.25,0.31-2.58,0.61-3.98,0.92v3.33h4.1v3.09l2.34-2.06c2.26,2.06,4.1,3.9,5.51,5.51
		l-2.69,2.06c-1.8-1.99-3.55-3.7-5.27-5.16h-3.51c1.64,1.91,3.16,3.9,4.57,5.96l-2.22,1.61L256.97,20V3.6h3.63v15.94l2.34-0.35
		l0.47,3.45l-2.81,0.45v6.65h-3.63V23.67z"/>
	<path class="st2" d="M424.93,22.95c1.72-1.02,3.24-2,4.57-2.94l-1.87-3.06c-1.17,0.79-2.65,1.73-4.45,2.82
		c-0.08-0.08-0.39-1.1-0.94-3.06h5.04c0.7,0,1.09-0.39,1.17-1.17V4.03c0-0.7-0.35-1.06-1.06-1.06h-12.77c-0.7,0-1.05,0.36-1.05,1.06
		v0.36l-2.34-1.65h-7.5c-0.08,0-0.19,0.04-0.35,0.12c-0.08,0.08-0.12,0.24-0.12,0.47v26.08h3.52v-5.88c1.48,0.31,2.81,0.31,3.98,0
		c1.41-0.47,2.34-1.45,2.81-2.94v5.52c-0.94,0-1.95,0.08-3.04,0.24l0.46,3.52c4.22-0.31,7.77-0.9,10.66-1.76l-0.7-3.52
		c-1.17,0.31-2.46,0.63-3.87,0.94v-8.81h1.64c0.94,4.7,3.05,8.5,6.33,11.4c0.7,0.55,1.52,1.21,2.46,2l2.93-2.58
		C427.86,26.04,426.03,24.51,424.93,22.95L424.93,22.95z M424.93,11.55v0.71c0,0.55-0.31,0.86-0.93,0.94h-6.91v-1.64H424.93
		L424.93,11.55z M417.08,8.02V7.31c-0.08-0.55,0.2-0.82,0.82-0.82h6.21c0.55,0,0.82,0.28,0.82,0.82v0.71H417.08L417.08,8.02z
		 M413.57,18.01c-0.32-1.49-1.01-2.94-2.11-4.35c-0.47-0.47-0.5-1.33-0.11-2.59l2.22-6.34V18.01L413.57,18.01z M407.48,11.9
		c-0.24,0.94-0.15,1.64,0.23,2.11c1.95,2.82,2.65,4.78,2.11,5.88c-0.08,0.24-0.35,0.39-0.82,0.47c-0.55,0.08-1.29-0.04-2.22-0.35
		V6.49c0-0.08,0-0.16,0-0.23c0.07-0.08,0.16-0.12,0.23-0.12h2.46L407.48,11.9z"/>
	<path class="st2" d="M94.31,15.04h-6.56v9.2c0,0.56,0.13,0.99,0.38,1.31c0.26,0.32,0.67,0.47,1.24,0.47h4.94v3.56h-6.42
		c-0.55,0-1.06-0.1-1.52-0.3c-0.47-0.2-0.87-0.48-1.21-0.85c-0.34-0.36-0.6-0.79-0.8-1.28c-0.19-0.49-0.29-1.01-0.29-1.57V15.04
		h-6.06v3.22c0,1.57-0.19,3.01-0.58,4.32c-0.38,1.31-0.96,2.47-1.73,3.46c-0.77,1-1.74,1.83-2.91,2.5
		c-1.17,0.67-2.54,1.15-4.12,1.44v-3.74c0.79-0.23,1.52-0.53,2.21-0.89c0.69-0.36,1.28-0.85,1.8-1.47c0.51-0.61,0.91-1.38,1.21-2.28
		c0.29-0.91,0.44-2.03,0.44-3.35v-3.22H68.5v-3.56h25.82V15.04L94.31,15.04z M92.39,6.19H70.42V2.6h21.98V6.19z"/>
	<path class="st2" d="M122.08,2.29c0.04,0.22,0.08,0.45,0.14,0.67c0.06,0.22,0.11,0.45,0.16,0.67c0.99-0.15,1.98-0.35,2.98-0.59
		c1-0.24,1.95-0.52,2.87-0.84v2.89c-0.66,0.26-1.41,0.51-2.25,0.74c-0.84,0.23-1.71,0.43-2.61,0.57c0.18,0.35,0.36,0.67,0.52,0.95
		c0.79-0.15,1.56-0.32,2.33-0.52c0.77-0.2,1.51-0.43,2.22-0.69v2.89c-0.37,0.15-0.75,0.29-1.17,0.42c-0.41,0.13-0.85,0.25-1.3,0.36
		c0.81,0.63,1.67,1.04,2.58,1.2v3.5c-1.08-0.15-2.05-0.41-2.92-0.78c-0.87-0.37-1.65-0.85-2.35-1.43v1.88h-10.13v-1.74
		c-0.7,0.52-1.46,0.96-2.3,1.32c-0.84,0.36-1.76,0.61-2.74,0.76v-3.5c0.53-0.15,1.05-0.35,1.56-0.6c0.41-0.2,0.83-0.45,1.24-0.73
		h-2.66V6.67h5.44c0.16-0.33,0.28-0.66,0.35-0.99h-5.93V2.6h9.58v3.14c-0.2,0.88-0.55,1.79-1.06,2.73c-0.5,0.94-1.17,1.84-1.99,2.68
		h7.44c-0.99-1.12-1.77-2.44-2.35-3.95c-0.58-1.51-1-3.15-1.28-4.9H122.08L122.08,2.29z M127.46,23.41h-18.5v-7.98h18.5V23.41
		L127.46,23.41z M126.09,24.45l-0.8,2.24h3.24v3.08h-20.63v-3.08h3.24l-0.77-2.24h3.84l0.77,2.24h6.48l0.8-2.24H126.09L126.09,24.45
		z M101.33,29.77c0.55-1.74,1.01-3.51,1.39-5.34c0.37-1.82,0.66-3.64,0.86-5.45h3.73c-0.2,1.81-0.49,3.63-0.86,5.45
		c-0.37,1.82-0.83,3.6-1.36,5.34H101.33L101.33,29.77z M105.67,10.75c0.38,1.08,0.71,2.16,0.99,3.24c0.27,1.07,0.51,2.15,0.71,3.24
		h-3.73c-0.2-1.08-0.44-2.16-0.73-3.24c-0.28-1.07-0.61-2.15-0.97-3.24H105.67L105.67,10.75z M105.67,2.63
		c0.38,1.08,0.71,2.16,0.99,3.22c0.27,1.06,0.51,2.14,0.71,3.22h-3.73c-0.2-1.08-0.44-2.16-0.73-3.22
		c-0.28-1.06-0.61-2.14-0.97-3.22H105.67L105.67,2.63z M123.78,18.51h-11.11v1.85h11.11V18.51z"/>
	<path class="st2" d="M161.15,14.23h-10.56v5.08h11.28v3.41h-11.28v7.01h-3.7v-7.01h-11.28v-3.41h11.28v-5.08h-10.56v-3.38h10.56
		V2.8h3.7v8.05h10.56V14.23L161.15,14.23z M139.17,9.84h3.4c-0.04-1.04-0.17-2.08-0.4-3.14c-0.23-1.06-0.53-2.02-0.89-2.89h-3.46
		c0.33,0.95,0.61,1.96,0.85,3.03C138.92,7.91,139.08,8.91,139.17,9.84L139.17,9.84z M159.64,3.81h-3.4c-0.09,0.93-0.26,1.93-0.49,3
		c-0.24,1.07-0.52,2.08-0.85,3.03h3.46c0.37-0.87,0.66-1.84,0.89-2.89C159.47,5.89,159.61,4.85,159.64,3.81z"/>
	<path class="st2" d="M285.67,18.09c0.18,0.84,0.53,1.62,1.04,2.36c0.51,0.74,1.13,1.4,1.87,2c0.93-0.78,1.71-1.67,2.33-2.66
		c0.62-0.99,1.01-2.08,1.15-3.26h-10.67V13.1h5.54V9.11h-6.09V5.71h6.09V2.73h3.7v2.97h6.09v3.41h-6.09v3.98h5.46v3.03
		c-0.17,1.71-0.62,3.27-1.36,4.68c-0.74,1.41-1.67,2.66-2.78,3.75c0.82,0.38,1.64,0.69,2.44,0.94c0.81,0.25,1.58,0.41,2.33,0.5v3.71
		c-1.37-0.09-2.76-0.35-4.16-0.79c-1.4-0.44-2.73-1.03-3.99-1.77c-1.23,0.71-2.5,1.28-3.83,1.72c-1.33,0.44-2.65,0.72-3.96,0.85
		v-3.71c0.7-0.09,1.43-0.25,2.2-0.49c0.77-0.24,1.54-0.54,2.3-0.9c-0.91-0.89-1.67-1.88-2.28-2.97c-0.6-1.09-1-2.27-1.18-3.54
		H285.67L285.67,18.09z M276.81,2.84v4.06h3.21v3.41h-3.21v6.11c0.53-0.22,1.07-0.45,1.61-0.71c0.54-0.25,1.07-0.52,1.6-0.79v3.41
		c-1.04,0.6-2.11,1.12-3.21,1.55v6.49c0,0.44-0.08,0.85-0.25,1.25c-0.16,0.4-0.39,0.75-0.68,1.05c-0.29,0.3-0.63,0.54-1,0.71
		c-0.38,0.17-0.78,0.26-1.22,0.26h-3.46v-3.41h1.67c0.38,0,0.69-0.11,0.91-0.33c0.22-0.22,0.33-0.52,0.33-0.9V21
		c-0.53,0.13-1.07,0.24-1.62,0.33c-0.55,0.09-1.12,0.16-1.7,0.22v-3.3c0.57-0.05,1.13-0.13,1.67-0.23c0.55-0.1,1.1-0.22,1.65-0.37
		v-7.34h-3.32V6.91h3.32V2.84H276.81z"/>
	<path class="st2" d="M309.79,26.16c0.24,0,0.43-0.08,0.59-0.25c0.16-0.17,0.23-0.36,0.23-0.59v-4.24h-2.77v1.23
		c0,0.82-0.07,1.64-0.22,2.46c-0.15,0.82-0.39,1.57-0.74,2.25c-0.35,0.68-0.82,1.27-1.41,1.77c-0.59,0.5-1.34,0.84-2.24,1v-4.58
		c0.15-0.17,0.28-0.34,0.4-0.53c0.12-0.19,0.21-0.4,0.29-0.66c0.07-0.25,0.13-0.55,0.16-0.89c0.04-0.34,0.05-0.76,0.05-1.24V2.85
		h10.18v24c0,0.78-0.27,1.44-0.8,1.98c-0.53,0.54-1.18,0.81-1.95,0.81h-3.07v-3.49H309.79L309.79,26.16z M319.58,18.51
		c0.17,0.84,0.51,1.61,1.04,2.33c0.53,0.72,1.18,1.36,1.95,1.94c0.84-0.73,1.54-1.54,2.08-2.46c0.55-0.91,0.86-1.9,0.93-2.96h-10.01
		v-3.35h13.99v2.93c-0.11,1.6-0.47,3.05-1.08,4.35c-0.61,1.3-1.4,2.47-2.37,3.49c0.71,0.3,1.43,0.54,2.15,0.73
		c0.72,0.19,1.4,0.32,2.04,0.42v3.8c-1.24-0.07-2.52-0.31-3.83-0.7c-1.31-0.39-2.57-0.92-3.77-1.59c-1.1,0.65-2.26,1.17-3.48,1.55
		c-1.23,0.38-2.46,0.63-3.7,0.74v-3.8c0.6-0.09,1.22-0.23,1.85-0.4c0.63-0.18,1.26-0.4,1.88-0.68c-0.91-0.87-1.67-1.84-2.28-2.9
		c-0.6-1.06-0.99-2.21-1.15-3.43H319.58L319.58,18.51z M328.55,2.6v6.2c0,0.2,0.07,0.38,0.21,0.53c0.14,0.15,0.31,0.22,0.51,0.22
		h1.07v3.49h-3.02c-0.7,0-1.28-0.24-1.76-0.73c-0.48-0.48-0.71-1.08-0.71-1.79V6.09h-4.66v1.73c-0.02,1.58-0.43,2.85-1.25,3.8
		c-0.81,0.95-2.09,1.55-3.83,1.81v-4.1c0.91-0.39,1.37-1.13,1.37-2.21V2.6H328.55L328.55,2.6z M307.84,6.34v3.91h2.77V6.34H307.84
		L307.84,6.34z M307.84,17.59h2.77v-3.88h-2.77V17.59z"/>
	<path class="st2" d="M363,25.91c0,0.54-0.1,1.04-0.3,1.51c-0.2,0.47-0.48,0.88-0.82,1.24c-0.35,0.35-0.75,0.63-1.22,0.83
		c-0.47,0.2-0.96,0.31-1.5,0.31h-4.97v-3.47h3.73c0.38,0,0.71-0.13,0.97-0.4c0.27-0.27,0.4-0.59,0.4-0.96v-6.83h-6.83v1.75
		c0,1.35-0.18,2.58-0.53,3.69c-0.36,1.11-0.85,2.1-1.48,2.96c-0.63,0.86-1.39,1.58-2.26,2.17c-0.88,0.58-1.84,1.01-2.88,1.29v-3.94
		c0.99-0.52,1.81-1.33,2.47-2.43c0.66-1.1,0.99-2.49,0.99-4.18v-1.31h-2.66v-3.47H363V25.91L363,25.91z M344.37,2.66
		c-0.13,1.06-0.29,2.05-0.48,3c-0.19,0.94-0.43,1.83-0.73,2.67v21.6h-3.7v-15.8c-0.77,0.68-1.58,1.27-2.44,1.75v-4.66
		c0.55-0.46,1.03-1.01,1.45-1.65c0.42-0.64,0.78-1.33,1.08-2.08c0.3-0.75,0.54-1.53,0.73-2.35c0.18-0.81,0.32-1.64,0.41-2.47H344.37
		L344.37,2.66z M352.51,2.47c-0.09,1.26-0.3,2.49-0.62,3.68c-0.32,1.19-0.77,2.31-1.34,3.36c-0.58,1.05-1.29,2-2.15,2.86
		c-0.86,0.86-1.88,1.58-3.05,2.15V9.94c0.97-0.85,1.76-1.94,2.36-3.28c0.6-1.33,0.97-2.73,1.1-4.19H352.51L352.51,2.47z
		 M360.55,2.47c0.13,1.46,0.49,2.86,1.08,4.19c0.6,1.33,1.38,2.42,2.35,3.28v4.58c-1.17-0.57-2.18-1.29-3.03-2.15
		c-0.85-0.86-1.56-1.81-2.14-2.86c-0.58-1.05-1.02-2.17-1.34-3.36c-0.32-1.19-0.53-2.42-0.62-3.68H360.55z"/>
	<path class="st2" d="M382.7,2.47c-0.09,0.43-0.2,0.84-0.32,1.24c-0.12,0.4-0.25,0.8-0.4,1.21h14.71V8.4h-16.35
		c-0.55,0.89-1.12,1.72-1.73,2.48h16.24v15.39c0,0.5-0.08,0.97-0.25,1.39c-0.16,0.43-0.39,0.79-0.67,1.1
		c-0.28,0.31-0.63,0.54-1.03,0.71c-0.4,0.17-0.85,0.25-1.35,0.25h-4.83v-3.48h3.32c0.73,0,1.1-0.4,1.1-1.2V24.6h-13.34v5.12h-3.68
		V14.8c-0.6,0.37-1.23,0.71-1.88,1.02c-0.65,0.31-1.32,0.56-2.02,0.77v-4.04c0.93-0.26,1.89-0.75,2.87-1.48
		c0.98-0.72,1.89-1.61,2.73-2.67h-5.24V4.92h7.41c0.37-0.76,0.67-1.58,0.91-2.45H382.7L382.7,2.47z M377.82,14.33V16h13.34v-1.67
		H377.82L377.82,14.33z M377.82,21.12h13.34v-1.64h-13.34V21.12z"/>
	<path class="st2" d="M444.85,2.93c-0.22,2.97-1.1,5.58-2.65,7.82c-1.55,2.24-3.71,4.02-6.49,5.32v-4.54
		c0.7-0.44,1.35-0.97,1.96-1.59c0.61-0.62,1.16-1.31,1.65-2.05c0.49-0.74,0.88-1.54,1.19-2.38c0.31-0.84,0.52-1.7,0.63-2.58H444.85
		L444.85,2.93z M455.38,2.93c0.11,0.88,0.32,1.74,0.63,2.58c0.31,0.84,0.7,1.64,1.18,2.38c0.47,0.74,1.02,1.42,1.63,2.05
		c0.61,0.62,1.28,1.15,1.99,1.59v4.54c-2.78-1.26-4.94-3.03-6.49-5.29s-2.42-4.88-2.62-7.85H455.38L455.38,2.93z M455.6,26.24
		h-14.62l6.56-11.35h-4.17l-6.67,11.35v3.44h23.13v-3.44l-3.65-7.56h-4.17L455.6,26.24z"/>
	<path class="st2" d="M491.16,26.12c0,0.52-0.1,1-0.3,1.46c-0.2,0.46-0.46,0.86-0.8,1.2c-0.33,0.34-0.72,0.62-1.17,0.82
		c-0.45,0.2-0.92,0.3-1.44,0.3h-5.26v-3.58h3.7c0.4,0,0.74-0.14,1.01-0.42c0.28-0.28,0.41-0.62,0.41-1.02V6.25h-21.39V2.67h25.22
		V26.12L491.16,26.12z M485.42,11.66V8.11h-19.94v3.55H485.42L485.42,11.66z M484.39,24.98V13.75h-17.89v11.23H484.39L484.39,24.98z
		 M480.56,17.33h-10.21v4.07h10.21V17.33z"/>
	<path class="st2" d="M375.35,39.35c0.25,0,0.48,0.05,0.69,0.14c0.21,0.09,0.4,0.22,0.56,0.37c0.16,0.16,0.28,0.34,0.38,0.55
		c0.1,0.21,0.14,0.44,0.14,0.68v2.85c0,0.24-0.05,0.47-0.14,0.68c-0.1,0.21-0.22,0.4-0.38,0.55c-0.16,0.16-0.34,0.28-0.56,0.37
		c-0.21,0.09-0.44,0.14-0.69,0.14h-3.29c-0.25,0-0.48-0.05-0.69-0.14c-0.22-0.09-0.41-0.22-0.56-0.37
		c-0.16-0.16-0.28-0.34-0.38-0.55c-0.1-0.21-0.14-0.44-0.14-0.68V41.1c0-0.24,0.05-0.47,0.14-0.68c0.1-0.21,0.22-0.4,0.38-0.55
		c0.16-0.16,0.35-0.28,0.56-0.37c0.22-0.09,0.45-0.14,0.69-0.14H375.35L375.35,39.35z M372.48,40.81c-0.17,0-0.31,0.06-0.42,0.17
		c-0.11,0.11-0.17,0.25-0.17,0.41v2.26c0,0.16,0.06,0.3,0.17,0.41c0.12,0.11,0.26,0.17,0.42,0.17h2.46c0.16,0,0.3-0.06,0.42-0.17
		c0.12-0.11,0.18-0.25,0.18-0.41v-2.26c0-0.16-0.06-0.3-0.18-0.41c-0.12-0.11-0.26-0.17-0.42-0.17H372.48z"/>
	<path class="st2" d="M489.02,39.35v-3.29h1.6v9.64h-5.07c-0.24,0-0.48-0.05-0.69-0.14c-0.21-0.09-0.4-0.22-0.56-0.37
		c-0.16-0.16-0.29-0.34-0.38-0.55c-0.09-0.21-0.14-0.44-0.14-0.68V41.1c0-0.24,0.05-0.47,0.14-0.68c0.09-0.21,0.22-0.4,0.38-0.55
		c0.16-0.16,0.35-0.28,0.56-0.37c0.21-0.09,0.44-0.14,0.69-0.14H489.02L489.02,39.35z M489.02,44.24v-3.43h-3.05
		c-0.16,0-0.3,0.06-0.42,0.17c-0.12,0.11-0.18,0.25-0.18,0.41v2.26c0,0.16,0.06,0.3,0.18,0.41c0.12,0.11,0.26,0.17,0.42,0.17H489.02
		z"/>
	<path class="st2" d="M475.07,39.35v-2.08h1.6v2.08h3.53v1.46h-3.53v2.96c0,0.13,0.04,0.24,0.14,0.33c0.09,0.09,0.2,0.13,0.34,0.13
		h0.91c0.14,0,0.25-0.04,0.34-0.13c0.09-0.09,0.14-0.2,0.14-0.33v-0.8h1.52v1.21c0,0.21-0.04,0.41-0.12,0.59
		c-0.08,0.18-0.19,0.34-0.33,0.48c-0.14,0.14-0.3,0.25-0.49,0.33c-0.19,0.08-0.39,0.12-0.6,0.12h-1.91c-0.21,0-0.41-0.04-0.6-0.12
		c-0.19-0.08-0.35-0.19-0.49-0.33c-0.14-0.14-0.25-0.3-0.33-0.48c-0.08-0.18-0.12-0.38-0.12-0.59v-3.37h-1.91v-1.46H475.07z"/>
	<polygon class="st2" points="463.27,36.06 464.87,36.06 464.87,44.24 470.04,44.24 470.04,45.69 463.27,45.69 	"/>
	<rect x="451.25" y="44.61" class="st2" width="1.6" height="1.52"/>
	<path class="st2" d="M442.18,39.35c0.25,0,0.48,0.05,0.69,0.14c0.21,0.09,0.4,0.22,0.56,0.37c0.16,0.16,0.29,0.34,0.38,0.55
		c0.09,0.21,0.14,0.44,0.14,0.68v2.85c0,0.24-0.05,0.47-0.14,0.68c-0.1,0.21-0.22,0.4-0.38,0.55c-0.16,0.16-0.34,0.28-0.56,0.37
		c-0.21,0.09-0.44,0.14-0.69,0.14h-3.29c-0.25,0-0.48-0.05-0.7-0.14c-0.22-0.09-0.41-0.22-0.56-0.37c-0.16-0.16-0.28-0.34-0.38-0.55
		c-0.09-0.21-0.14-0.44-0.14-0.68V41.1c0-0.24,0.05-0.47,0.14-0.68c0.1-0.21,0.22-0.4,0.38-0.55c0.16-0.16,0.35-0.28,0.56-0.37
		c0.22-0.09,0.45-0.14,0.7-0.14H442.18L442.18,39.35z M439.31,40.81c-0.17,0-0.31,0.06-0.42,0.17c-0.12,0.11-0.17,0.25-0.17,0.41
		v2.26c0,0.16,0.06,0.3,0.17,0.41c0.11,0.11,0.25,0.17,0.42,0.17h2.46c0.16,0,0.3-0.06,0.42-0.17c0.12-0.11,0.18-0.25,0.18-0.41
		v-2.26c0-0.16-0.06-0.3-0.18-0.41c-0.12-0.11-0.26-0.17-0.42-0.17H439.31z"/>
	<path class="st2" d="M427.7,43.19c0,0.7,0.36,1.05,1.07,1.05h4.78v1.46h-5.43c-0.66,0-1.16-0.18-1.5-0.54
		c-0.34-0.36-0.52-0.86-0.52-1.51v-5.57c0-0.65,0.17-1.15,0.52-1.5c0.34-0.35,0.85-0.53,1.5-0.53h5.43v1.45h-4.78
		c-0.71,0-1.07,0.35-1.07,1.05V43.19z"/>
	<polygon class="st2" points="416,39.36 411.76,47.34 409.9,47.34 410.92,45.41 407.42,39.36 409.38,39.36 411.88,43.58 
		414.1,39.36 	"/>
	<path class="st2" d="M402.25,46v-0.9h-3.47c-0.24,0-0.48-0.05-0.69-0.14c-0.21-0.09-0.4-0.22-0.56-0.38
		c-0.16-0.16-0.29-0.34-0.38-0.55c-0.09-0.21-0.14-0.44-0.14-0.68V41.1c0-0.24,0.05-0.47,0.14-0.68c0.09-0.21,0.22-0.39,0.38-0.55
		c0.16-0.16,0.35-0.28,0.56-0.37c0.21-0.09,0.44-0.14,0.69-0.14h5.07v7.98h-0.05h-1.55h-5.24V46H402.25L402.25,46z M402.25,43.64
		v-2.84h-3.05c-0.16,0-0.3,0.06-0.42,0.17c-0.12,0.12-0.18,0.25-0.18,0.41v1.67c0,0.16,0.06,0.29,0.18,0.41
		c0.12,0.12,0.26,0.18,0.42,0.18H402.25z"/>
	<path class="st2" d="M391.39,39.35c0.25,0,0.48,0.05,0.69,0.14c0.21,0.09,0.4,0.22,0.56,0.37c0.16,0.16,0.29,0.34,0.38,0.55
		c0.09,0.21,0.14,0.44,0.14,0.68v2.85c0,0.24-0.05,0.47-0.14,0.68c-0.1,0.21-0.22,0.4-0.38,0.55c-0.16,0.16-0.34,0.28-0.56,0.37
		c-0.21,0.09-0.44,0.14-0.69,0.14h-3.29c-0.25,0-0.48-0.05-0.7-0.14c-0.22-0.09-0.41-0.22-0.56-0.37c-0.16-0.16-0.29-0.34-0.38-0.55
		c-0.09-0.21-0.14-0.44-0.14-0.68V41.1c0-0.24,0.05-0.47,0.14-0.68c0.1-0.21,0.22-0.4,0.38-0.55c0.16-0.16,0.35-0.28,0.56-0.37
		c0.22-0.09,0.45-0.14,0.7-0.14H391.39L391.39,39.35z M388.51,40.81c-0.17,0-0.31,0.06-0.42,0.17c-0.12,0.11-0.17,0.25-0.17,0.41
		v2.26c0,0.16,0.06,0.3,0.17,0.41c0.11,0.11,0.25,0.17,0.42,0.17h2.46c0.16,0,0.3-0.06,0.42-0.17c0.12-0.11,0.18-0.25,0.18-0.41
		v-2.26c0-0.16-0.06-0.3-0.18-0.41c-0.12-0.11-0.26-0.17-0.42-0.17H388.51z"/>
	<rect x="380.91" y="36.06" class="st2" width="1.6" height="9.64"/>
	<path class="st2" d="M364.83,45.69v-4.31c0-0.16-0.06-0.3-0.17-0.41c-0.11-0.11-0.25-0.17-0.41-0.17h-3.05v4.89h-1.6v-6.35h5.07
		c0.25,0,0.48,0.05,0.69,0.14c0.21,0.09,0.4,0.22,0.56,0.37c0.16,0.16,0.28,0.34,0.38,0.55c0.1,0.21,0.14,0.44,0.14,0.68v4.6H364.83
		z"/>
	<path class="st2" d="M354.14,45.69v-4.31c0-0.16-0.06-0.3-0.17-0.41c-0.11-0.11-0.25-0.17-0.41-0.17h-3.05v4.89h-1.6v-9.64h1.6
		v3.29h3.47c0.25,0,0.48,0.05,0.69,0.14c0.21,0.09,0.4,0.22,0.56,0.37c0.16,0.16,0.28,0.34,0.38,0.55c0.1,0.21,0.14,0.44,0.14,0.68
		v4.6H354.14z"/>
	<path class="st2" d="M345.33,39.35v1.46h-3.72c-0.17,0-0.31,0.06-0.42,0.17c-0.11,0.11-0.17,0.25-0.17,0.41v2.26
		c0,0.16,0.06,0.3,0.17,0.41c0.11,0.11,0.26,0.17,0.42,0.17h3.72v1.46h-4.13c-0.25,0-0.48-0.05-0.69-0.14
		c-0.22-0.09-0.41-0.22-0.56-0.37c-0.16-0.16-0.29-0.34-0.38-0.55c-0.1-0.21-0.14-0.44-0.14-0.68V41.1c0-0.24,0.05-0.47,0.14-0.68
		c0.09-0.21,0.22-0.4,0.38-0.55c0.16-0.16,0.35-0.28,0.56-0.37c0.22-0.09,0.45-0.14,0.69-0.14H345.33z"/>
	<path class="st2" d="M328.73,41c0-0.24,0.04-0.46,0.12-0.67c0.08-0.2,0.2-0.38,0.34-0.53c0.15-0.15,0.32-0.26,0.53-0.34
		c0.21-0.08,0.43-0.12,0.68-0.12h3.88c0.17,0,0.33,0.03,0.48,0.1s0.29,0.16,0.41,0.28c0.12,0.12,0.21,0.25,0.29,0.4
		c0.07,0.15,0.11,0.31,0.11,0.47V42c0,0.16-0.04,0.32-0.11,0.47c-0.07,0.15-0.17,0.29-0.29,0.4c-0.12,0.12-0.25,0.21-0.41,0.28
		c-0.15,0.07-0.31,0.11-0.48,0.11h-3.97v0.4c0,0.16,0.06,0.3,0.18,0.41c0.12,0.11,0.26,0.17,0.42,0.17h4.56v1.46h-4.98
		c-0.25,0-0.47-0.05-0.69-0.14c-0.21-0.09-0.4-0.22-0.56-0.37c-0.16-0.16-0.29-0.34-0.38-0.55c-0.09-0.21-0.14-0.44-0.14-0.68V41
		L328.73,41z M333.67,41.8c0.09,0,0.16-0.03,0.21-0.08c0.06-0.05,0.08-0.12,0.08-0.21V41.1c0-0.09-0.03-0.16-0.08-0.21
		c-0.06-0.05-0.13-0.08-0.21-0.08h-2.93c-0.11,0-0.21,0.04-0.29,0.12c-0.08,0.08-0.12,0.18-0.12,0.29v0.58H333.67z"/>
	<polygon class="st2" points="320.37,45.69 320.37,37.5 317.22,37.5 317.22,36.06 325.11,36.06 325.11,37.5 321.97,37.5 
		321.97,45.69 	"/>
	<path class="st2" d="M301.81,40.12c0.19-0.25,0.43-0.44,0.73-0.57c0.3-0.13,0.61-0.2,0.94-0.2h1.82c0.25,0,0.48,0.04,0.69,0.12
		c0.21,0.08,0.4,0.19,0.56,0.33c0.16,0.14,0.28,0.31,0.37,0.51c0.09,0.2,0.14,0.42,0.14,0.66v0.81h-1.6V41.3
		c0-0.16-0.06-0.29-0.17-0.37c-0.11-0.08-0.25-0.12-0.4-0.12h-1.7c-0.3,0-0.57,0.05-0.8,0.15c-0.23,0.1-0.43,0.29-0.58,0.57v4.17
		h-1.6v-6.35h1.6V40.12z"/>
	<path class="st2" d="M294.6,39.35c0.24,0,0.47,0.05,0.69,0.14c0.21,0.09,0.4,0.22,0.56,0.37c0.16,0.16,0.29,0.34,0.38,0.55
		c0.09,0.21,0.14,0.44,0.14,0.68v2.85c0,0.24-0.05,0.47-0.14,0.68c-0.1,0.21-0.22,0.4-0.38,0.55c-0.16,0.16-0.34,0.28-0.56,0.37
		c-0.21,0.09-0.44,0.14-0.69,0.14h-3.29c-0.25,0-0.48-0.05-0.7-0.14c-0.22-0.09-0.41-0.22-0.56-0.37c-0.16-0.16-0.29-0.34-0.38-0.55
		c-0.09-0.21-0.14-0.44-0.14-0.68V41.1c0-0.24,0.05-0.47,0.14-0.68c0.1-0.21,0.22-0.4,0.38-0.55c0.16-0.16,0.35-0.28,0.56-0.37
		c0.22-0.09,0.45-0.14,0.7-0.14H294.6L294.6,39.35z M291.73,40.81c-0.17,0-0.31,0.06-0.42,0.17c-0.11,0.11-0.17,0.25-0.17,0.41v2.26
		c0,0.16,0.06,0.3,0.17,0.41c0.12,0.11,0.26,0.17,0.42,0.17h2.46c0.16,0,0.3-0.06,0.42-0.17c0.12-0.11,0.18-0.25,0.18-0.41v-2.26
		c0-0.16-0.06-0.3-0.18-0.41c-0.12-0.11-0.26-0.17-0.42-0.17H291.73z"/>
	<path class="st2" d="M280.82,39.35v-2.08h1.6v2.08h3.53v1.46h-3.53v2.96c0,0.13,0.05,0.24,0.14,0.33c0.09,0.09,0.2,0.13,0.34,0.13
		h0.91c0.13,0,0.25-0.04,0.34-0.13c0.09-0.09,0.14-0.2,0.14-0.33v-0.8h1.52v1.21c0,0.21-0.04,0.41-0.12,0.59
		c-0.08,0.18-0.19,0.34-0.33,0.48c-0.14,0.14-0.3,0.25-0.49,0.33c-0.19,0.08-0.39,0.12-0.6,0.12h-1.91c-0.21,0-0.41-0.04-0.6-0.12
		c-0.19-0.08-0.35-0.19-0.49-0.33c-0.14-0.14-0.25-0.3-0.33-0.48c-0.08-0.18-0.12-0.38-0.12-0.59v-3.37h-1.91v-1.46H280.82z"/>
	<path class="st2" d="M275.63,39.35v1.46h-3.72c-0.17,0-0.31,0.06-0.42,0.17c-0.12,0.11-0.17,0.25-0.17,0.41v2.26
		c0,0.16,0.06,0.3,0.17,0.41c0.11,0.11,0.25,0.17,0.42,0.17h3.72v1.46h-4.13c-0.25,0-0.48-0.05-0.69-0.14
		c-0.22-0.09-0.41-0.22-0.56-0.37c-0.16-0.16-0.29-0.34-0.38-0.55c-0.1-0.21-0.14-0.44-0.14-0.68V41.1c0-0.24,0.05-0.47,0.14-0.68
		c0.1-0.21,0.22-0.4,0.38-0.55c0.16-0.16,0.35-0.28,0.56-0.37c0.22-0.09,0.45-0.14,0.69-0.14H275.63z"/>
	<path class="st2" d="M260.63,39.35v4.31c0,0.16,0.06,0.3,0.17,0.41c0.11,0.11,0.25,0.17,0.42,0.17h2.46c0.16,0,0.3-0.06,0.42-0.17
		c0.12-0.11,0.18-0.25,0.18-0.41v-4.31h1.59v4.6c0,0.24-0.05,0.47-0.14,0.68c-0.09,0.21-0.22,0.4-0.38,0.55
		c-0.16,0.16-0.34,0.28-0.56,0.37c-0.21,0.09-0.44,0.14-0.69,0.14h-3.29c-0.25,0-0.48-0.05-0.69-0.14
		c-0.22-0.09-0.41-0.22-0.56-0.37c-0.16-0.16-0.29-0.34-0.38-0.55c-0.1-0.21-0.14-0.44-0.14-0.68v-4.6H260.63z"/>
	<path class="st2" d="M253.57,39.35v-3.29h1.6v9.64h-5.07c-0.25,0-0.48-0.05-0.69-0.14c-0.21-0.09-0.4-0.22-0.56-0.37
		c-0.16-0.16-0.29-0.34-0.38-0.55c-0.09-0.21-0.14-0.44-0.14-0.68V41.1c0-0.24,0.05-0.47,0.14-0.68c0.09-0.21,0.22-0.4,0.38-0.55
		c0.16-0.16,0.35-0.28,0.56-0.37c0.21-0.09,0.44-0.14,0.69-0.14H253.57L253.57,39.35z M253.57,44.24v-3.43h-3.05
		c-0.16,0-0.3,0.06-0.42,0.17c-0.12,0.11-0.18,0.25-0.18,0.41v2.26c0,0.16,0.06,0.3,0.18,0.41c0.12,0.11,0.26,0.17,0.42,0.17H253.57
		z"/>
	<path class="st2" d="M242.88,45.69v-4.31c0-0.16-0.06-0.3-0.17-0.41c-0.12-0.11-0.25-0.17-0.41-0.17h-3.05v4.89h-1.6v-6.35h5.07
		c0.25,0,0.48,0.05,0.69,0.14c0.21,0.09,0.4,0.22,0.56,0.37c0.16,0.16,0.29,0.34,0.38,0.55c0.1,0.21,0.14,0.44,0.14,0.68v4.6H242.88
		z"/>
	<path class="st2" d="M232.02,39.35c0.25,0,0.48,0.05,0.69,0.14c0.21,0.09,0.4,0.22,0.56,0.37c0.16,0.16,0.29,0.34,0.38,0.55
		c0.1,0.21,0.14,0.44,0.14,0.68v2.85c0,0.24-0.05,0.47-0.14,0.68c-0.09,0.21-0.22,0.4-0.38,0.55c-0.16,0.16-0.34,0.28-0.56,0.37
		c-0.21,0.09-0.44,0.14-0.69,0.14h-3.29c-0.25,0-0.48-0.05-0.69-0.14c-0.22-0.09-0.41-0.22-0.56-0.37
		c-0.16-0.16-0.29-0.34-0.38-0.55c-0.1-0.21-0.14-0.44-0.14-0.68V41.1c0-0.24,0.05-0.47,0.14-0.68c0.1-0.21,0.22-0.4,0.38-0.55
		c0.16-0.16,0.35-0.28,0.56-0.37c0.22-0.09,0.45-0.14,0.69-0.14H232.02L232.02,39.35z M229.15,40.81c-0.17,0-0.31,0.06-0.42,0.17
		c-0.12,0.11-0.17,0.25-0.17,0.41v2.26c0,0.16,0.06,0.3,0.17,0.41c0.11,0.11,0.25,0.17,0.42,0.17h2.46c0.16,0,0.3-0.06,0.42-0.17
		c0.12-0.11,0.18-0.25,0.18-0.41v-2.26c0-0.16-0.06-0.3-0.18-0.41c-0.12-0.11-0.26-0.17-0.42-0.17H229.15z"/>
	<path class="st2" d="M223.39,39.35v1.46h-3.72c-0.17,0-0.31,0.06-0.42,0.17c-0.12,0.11-0.17,0.25-0.17,0.41v2.26
		c0,0.16,0.06,0.3,0.17,0.41c0.11,0.11,0.26,0.17,0.42,0.17h3.72v1.46h-4.13c-0.24,0-0.48-0.05-0.69-0.14
		c-0.22-0.09-0.41-0.22-0.56-0.37c-0.16-0.16-0.28-0.34-0.38-0.55c-0.1-0.21-0.14-0.44-0.14-0.68V41.1c0-0.24,0.05-0.47,0.14-0.68
		c0.09-0.21,0.22-0.4,0.38-0.55c0.16-0.16,0.35-0.28,0.56-0.37c0.22-0.09,0.45-0.14,0.69-0.14H223.39z"/>
	<rect x="212.07" y="36.79" class="st2" width="1.6" height="1.83"/>
	<rect x="212.07" y="39.35" class="st2" width="1.6" height="6.35"/>
	<path class="st2" d="M197.84,39.35h3.66c0.49,0,0.88,0.11,1.16,0.34c0.28,0.23,0.42,0.52,0.42,0.87c0-0.19,0.04-0.35,0.12-0.5
		c0.08-0.15,0.19-0.27,0.33-0.38c0.14-0.11,0.31-0.19,0.5-0.25c0.19-0.06,0.4-0.09,0.62-0.09h1.96c0.25,0,0.47,0.04,0.68,0.11
		c0.21,0.07,0.39,0.18,0.54,0.32c0.15,0.14,0.27,0.31,0.36,0.5c0.09,0.19,0.13,0.41,0.13,0.65v4.76h-1.6v-4.31
		c0-0.16-0.06-0.3-0.17-0.41c-0.11-0.11-0.25-0.17-0.42-0.17h-1.65c-0.16,0-0.3,0.06-0.42,0.17c-0.12,0.11-0.18,0.25-0.18,0.41v4.31
		h-1.59v-4.31c0-0.16-0.06-0.3-0.17-0.41c-0.12-0.11-0.25-0.17-0.41-0.17h-2.26v4.89h-1.6V39.35z"/>
	<path class="st2" d="M187.18,41c0-0.24,0.04-0.46,0.13-0.67c0.08-0.2,0.2-0.38,0.34-0.53c0.15-0.15,0.32-0.26,0.53-0.34
		c0.21-0.08,0.43-0.12,0.68-0.12h3.88c0.17,0,0.33,0.03,0.48,0.1c0.15,0.07,0.29,0.16,0.41,0.28c0.12,0.12,0.21,0.25,0.29,0.4
		c0.07,0.15,0.11,0.31,0.11,0.47V42c0,0.16-0.04,0.32-0.11,0.47c-0.07,0.15-0.17,0.29-0.29,0.4c-0.12,0.12-0.25,0.21-0.41,0.28
		c-0.15,0.07-0.31,0.11-0.48,0.11h-3.97v0.4c0,0.16,0.06,0.3,0.18,0.41c0.12,0.11,0.26,0.17,0.42,0.17h4.56v1.46h-4.98
		c-0.25,0-0.48-0.05-0.69-0.14c-0.21-0.09-0.4-0.22-0.56-0.37c-0.16-0.16-0.29-0.34-0.38-0.55c-0.09-0.21-0.14-0.44-0.14-0.68V41
		L187.18,41z M192.12,41.8c0.09,0,0.16-0.03,0.21-0.08c0.06-0.05,0.08-0.12,0.08-0.21V41.1c0-0.09-0.03-0.16-0.08-0.21
		c-0.06-0.05-0.13-0.08-0.21-0.08h-2.93c-0.11,0-0.21,0.04-0.29,0.12c-0.08,0.08-0.12,0.18-0.12,0.29v0.58H192.12z"/>
	<path class="st2" d="M183.26,44.12c0,0.24-0.04,0.46-0.13,0.65c-0.09,0.19-0.21,0.36-0.36,0.5c-0.15,0.14-0.34,0.24-0.55,0.32
		c-0.21,0.07-0.44,0.11-0.68,0.11h-4.44c-0.25,0-0.47-0.04-0.68-0.11c-0.21-0.07-0.39-0.18-0.55-0.32c-0.15-0.14-0.28-0.3-0.36-0.5
		c-0.09-0.19-0.13-0.41-0.13-0.65v-1.11h1.6v0.64c0,0.16,0.06,0.3,0.18,0.41c0.12,0.11,0.26,0.17,0.42,0.17h3.49
		c0.17,0,0.31-0.06,0.42-0.17c0.11-0.11,0.17-0.25,0.17-0.41v-1.59c0-0.16-0.06-0.3-0.17-0.41c-0.12-0.11-0.26-0.17-0.42-0.17h-3.97
		c-0.25,0-0.47-0.04-0.68-0.11c-0.21-0.07-0.39-0.18-0.55-0.32c-0.15-0.14-0.28-0.3-0.36-0.5c-0.09-0.19-0.13-0.41-0.13-0.65v-2.29
		c0-0.24,0.04-0.46,0.13-0.65c0.09-0.19,0.21-0.35,0.36-0.49c0.15-0.14,0.34-0.24,0.55-0.32c0.21-0.07,0.44-0.11,0.68-0.11h4.44
		c0.25,0,0.47,0.04,0.68,0.11c0.21,0.07,0.39,0.18,0.55,0.32c0.15,0.14,0.28,0.3,0.36,0.49c0.09,0.19,0.13,0.41,0.13,0.65v1.11h-1.6
		v-0.64c0-0.16-0.06-0.29-0.17-0.41c-0.12-0.12-0.26-0.18-0.42-0.18h-3.49c-0.16,0-0.3,0.06-0.42,0.18
		c-0.12,0.12-0.18,0.25-0.18,0.41v1.35c0,0.16,0.06,0.3,0.18,0.41c0.12,0.11,0.26,0.17,0.42,0.17h3.97c0.25,0,0.47,0.04,0.68,0.11
		c0.21,0.07,0.39,0.18,0.55,0.32c0.15,0.14,0.28,0.3,0.36,0.5c0.09,0.19,0.13,0.41,0.13,0.65V44.12z"/>
	<polygon class="st2" points="165.19,39.36 160.95,47.34 159.1,47.34 160.11,45.41 156.62,39.36 158.58,39.36 161.07,43.58 
		163.29,39.36 	"/>
	<polygon class="st2" points="153.29,39.35 150.62,42.54 153.29,45.69 151.33,45.69 149.66,43.7 147.98,45.69 146.02,45.69 
		148.66,42.51 146.02,39.35 147.92,39.35 149.61,41.35 151.27,39.35 	"/>
	<path class="st2" d="M142.78,45.69c-0.35-0.06-0.64-0.15-0.89-0.25c-0.24-0.1-0.45-0.24-0.64-0.4c-0.17,0.2-0.37,0.36-0.61,0.48
		c-0.24,0.12-0.5,0.18-0.77,0.18h-3.29c-0.25,0-0.48-0.05-0.69-0.14c-0.21-0.09-0.4-0.22-0.56-0.37c-0.16-0.16-0.29-0.34-0.38-0.55
		c-0.09-0.21-0.14-0.44-0.14-0.68V41.1c0-0.24,0.05-0.47,0.14-0.68c0.09-0.21,0.22-0.4,0.38-0.55c0.16-0.16,0.35-0.28,0.56-0.37
		c0.21-0.09,0.44-0.14,0.69-0.14h3.29c0.25,0,0.48,0.05,0.69,0.14c0.22,0.09,0.41,0.22,0.56,0.37c0.16,0.16,0.29,0.34,0.38,0.55
		c0.09,0.21,0.14,0.44,0.14,0.68v1.79c0.06,0.33,0.17,0.59,0.33,0.78c0.17,0.19,0.43,0.33,0.78,0.41V45.69L142.78,45.69z
		 M137.01,40.81c-0.16,0-0.3,0.06-0.42,0.17c-0.12,0.11-0.18,0.25-0.18,0.4v2.27c0,0.16,0.06,0.3,0.18,0.41
		c0.12,0.11,0.26,0.17,0.42,0.17h2.46c0.17,0,0.31-0.06,0.42-0.17c0.11-0.11,0.17-0.25,0.17-0.41v-2.27c0-0.16-0.06-0.29-0.17-0.4
		c-0.12-0.11-0.26-0.17-0.42-0.17H137.01z"/>
	<path class="st2" d="M126.2,39.35v-2.08h1.6v2.08h3.53v1.46h-3.53v2.96c0,0.13,0.05,0.24,0.14,0.33c0.09,0.09,0.2,0.13,0.34,0.13
		h0.92c0.13,0,0.25-0.04,0.34-0.13c0.09-0.09,0.14-0.2,0.14-0.33v-0.8h1.52v1.21c0,0.21-0.04,0.41-0.12,0.59
		c-0.08,0.18-0.19,0.34-0.33,0.48c-0.14,0.14-0.3,0.25-0.49,0.33c-0.19,0.08-0.39,0.12-0.6,0.12h-1.91c-0.21,0-0.41-0.04-0.6-0.12
		c-0.19-0.08-0.35-0.19-0.49-0.33c-0.14-0.14-0.25-0.3-0.33-0.48c-0.08-0.18-0.12-0.38-0.12-0.59v-3.37h-1.91v-1.46H126.2z"/>
	<rect x="119.16" y="36.79" class="st2" width="1.6" height="1.83"/>
	<rect x="119.16" y="39.35" class="st2" width="1.6" height="6.35"/>
	<path class="st2" d="M113.6,39.35c0.25,0,0.48,0.05,0.69,0.14c0.21,0.09,0.4,0.22,0.56,0.37c0.16,0.16,0.29,0.34,0.38,0.55
		c0.09,0.21,0.14,0.44,0.14,0.68v2.85c0,0.24-0.05,0.47-0.14,0.68c-0.1,0.21-0.22,0.4-0.38,0.55c-0.16,0.16-0.34,0.28-0.56,0.37
		c-0.21,0.09-0.44,0.14-0.69,0.14h-3.47v1.65h-1.6v-7.99H113.6L113.6,39.35z M110.14,40.81v3.43h3.05c0.16,0,0.3-0.06,0.42-0.17
		c0.12-0.11,0.18-0.25,0.18-0.41v-2.26c0-0.16-0.06-0.3-0.18-0.41c-0.12-0.11-0.26-0.17-0.42-0.17H110.14z"/>
	<polygon class="st2" points="99.14,44.24 104.86,44.24 104.86,45.69 97.53,45.69 97.53,36.06 104.86,36.06 104.86,37.5 99.14,37.5 
		99.14,40.14 104.62,40.14 104.62,41.6 99.14,41.6 	"/>
	<polygon class="st2" points="81.71,44.24 87.44,44.24 87.44,45.69 80.11,45.69 80.11,36.06 87.44,36.06 87.44,37.5 81.71,37.5 
		81.71,40.14 87.2,40.14 87.2,41.6 81.71,41.6 	"/>
	<path class="st2" d="M73.64,36.06c0.33,0,0.65,0.04,0.94,0.13c0.3,0.09,0.56,0.21,0.78,0.38c0.22,0.17,0.4,0.37,0.52,0.62
		c0.13,0.25,0.19,0.53,0.19,0.85v1.11c0,0.35-0.09,0.66-0.28,0.94c-0.19,0.28-0.43,0.49-0.72,0.64c0.37,0.08,0.68,0.26,0.92,0.52
		c0.24,0.27,0.36,0.6,0.36,0.99v1.42c0,0.65-0.17,1.15-0.51,1.51c-0.34,0.36-0.84,0.54-1.5,0.54h-6.02v-9.64H73.64L73.64,36.06z
		 M69.94,41.3v2.94h3.77c0.71,0,1.07-0.35,1.07-1.05v-0.9c0-0.16-0.03-0.31-0.1-0.43c-0.07-0.12-0.16-0.22-0.27-0.31
		c-0.12-0.09-0.25-0.15-0.4-0.19c-0.15-0.04-0.31-0.06-0.48-0.06H69.94L69.94,41.3z M69.94,37.5v2.39h3.59
		c0.33,0,0.57-0.08,0.73-0.23c0.15-0.15,0.23-0.37,0.23-0.65v-0.58c0-0.33-0.1-0.56-0.32-0.71c-0.21-0.15-0.48-0.22-0.81-0.22H69.94
		z"/>
</g>
</svg>
